<?xml version="1.0" encoding="UTF-8" standalone="no"?> <svg xmlns="http://www.w3.org/2000/svg" viewBox="0 0 512 512"><g id="Skills_lightbulb"><path d="M325.9983,431h-140a14,14,0,1,0,0,28h30.4438a41.9449,41.9449,0,0,0,79.1175,0h30.4387a14,14,0,0,0,0-28Z"/><path d="M325.9983,389h-140a14,14,0,1,0,0,28h140a14,14,0,0,0,0-28Z"/><path d="M346.6874,289.6375a113.0844,113.0844,0,1,0-181.3693,0l42.7,57.33.04.0329H185.9985a14,14,0,0,0,0,28h140a14,14,0,1,0,0-28H303.94l.0487-.0329ZM270.0164,347H241.928l.04-.0329v-84h-21a14,14,0,0,1,0-28h70a14,14,0,1,1,0,28h-21v84Z"/><path d="M421.5715,301.5278l-24.25-14a13.9993,13.9993,0,1,0-14,24.247l24.25,14a13.9993,13.9993,0,1,0,14-24.247Z"/><path d="M390.3347,158.5541a13.9136,13.9136,0,0,0,6.9863-1.88l24.25-14a13.9993,13.9993,0,1,0-14-24.2471l-24.25,14a14.0023,14.0023,0,0,0,7.0137,26.1269Z"/><path d="M255.9983,81a14.0007,14.0007,0,0,0,14-14V39a14,14,0,1,0-28,0V67A14.0006,14.0006,0,0,0,255.9983,81Z"/><path d="M128.679,132.4272l-24.2505-14a13.9993,13.9993,0,1,0-14,24.2471l24.2505,14a13.9993,13.9993,0,0,0,14-24.2471Z"/><path d="M114.679,287.5278l-24.2505,14a13.9993,13.9993,0,1,0,14,24.247l24.2505-14a13.9993,13.9993,0,0,0-14-24.247Z"/></g></svg>